<mxfile host="app.diagrams.net" modified="2021-12-20T03:23:30.296Z" agent="5.0 (Windows NT 10.0; Win64; x64) AppleWebKit/537.36 (KHTML, like Gecko) Chrome/96.0.4664.93 Safari/537.36" etag="NwkDkFLmrx9TAKF6BEXd" version="15.9.6" type="github">
  <diagram id="Ys05KuGE8ahRNsLdFcRA" name="Page-1">
    <mxGraphModel dx="2858" dy="2303" grid="1" gridSize="10" guides="1" tooltips="1" connect="1" arrows="1" fold="1" page="1" pageScale="1" pageWidth="827" pageHeight="1169" math="0" shadow="0">
      <root>
        <mxCell id="0" />
        <mxCell id="1" parent="0" />
        <mxCell id="vhjB4R_xnmIIH9IUFAty-6" value="" style="edgeStyle=orthogonalEdgeStyle;rounded=0;orthogonalLoop=1;jettySize=auto;html=1;entryX=0;entryY=0.5;entryDx=0;entryDy=0;" parent="1" source="vhjB4R_xnmIIH9IUFAty-1" target="vhjB4R_xnmIIH9IUFAty-28" edge="1">
          <mxGeometry relative="1" as="geometry">
            <mxPoint x="294" y="60" as="targetPoint" />
          </mxGeometry>
        </mxCell>
        <mxCell id="vhjB4R_xnmIIH9IUFAty-10" value="" style="edgeStyle=orthogonalEdgeStyle;rounded=0;orthogonalLoop=1;jettySize=auto;html=1;" parent="1" source="vhjB4R_xnmIIH9IUFAty-1" target="vhjB4R_xnmIIH9IUFAty-9" edge="1">
          <mxGeometry relative="1" as="geometry" />
        </mxCell>
        <mxCell id="vhjB4R_xnmIIH9IUFAty-13" value="" style="edgeStyle=orthogonalEdgeStyle;rounded=0;orthogonalLoop=1;jettySize=auto;html=1;" parent="1" source="vhjB4R_xnmIIH9IUFAty-1" target="vhjB4R_xnmIIH9IUFAty-12" edge="1">
          <mxGeometry relative="1" as="geometry" />
        </mxCell>
        <mxCell id="vhjB4R_xnmIIH9IUFAty-24" value="" style="edgeStyle=orthogonalEdgeStyle;rounded=0;orthogonalLoop=1;jettySize=auto;html=1;" parent="1" source="vhjB4R_xnmIIH9IUFAty-1" target="vhjB4R_xnmIIH9IUFAty-23" edge="1">
          <mxGeometry relative="1" as="geometry" />
        </mxCell>
        <mxCell id="vhjB4R_xnmIIH9IUFAty-1" value="List" style="rounded=0;whiteSpace=wrap;html=1;" parent="1" vertex="1">
          <mxGeometry x="100" y="30" width="120" height="60" as="geometry" />
        </mxCell>
        <mxCell id="vhjB4R_xnmIIH9IUFAty-14" value="" style="edgeStyle=orthogonalEdgeStyle;rounded=0;orthogonalLoop=1;jettySize=auto;html=1;" parent="1" source="vhjB4R_xnmIIH9IUFAty-4" target="vhjB4R_xnmIIH9IUFAty-1" edge="1">
          <mxGeometry relative="1" as="geometry" />
        </mxCell>
        <mxCell id="vhjB4R_xnmIIH9IUFAty-4" value="Portal&lt;br&gt;-Basep09&lt;br&gt;" style="rounded=0;whiteSpace=wrap;html=1;" parent="1" vertex="1">
          <mxGeometry x="100" y="-100" width="120" height="60" as="geometry" />
        </mxCell>
        <mxCell id="vhjB4R_xnmIIH9IUFAty-17" value="" style="edgeStyle=orthogonalEdgeStyle;rounded=0;orthogonalLoop=1;jettySize=auto;html=1;" parent="1" source="vhjB4R_xnmIIH9IUFAty-9" target="vhjB4R_xnmIIH9IUFAty-15" edge="1">
          <mxGeometry relative="1" as="geometry" />
        </mxCell>
        <mxCell id="vhjB4R_xnmIIH9IUFAty-9" value="Create" style="rounded=0;whiteSpace=wrap;html=1;" parent="1" vertex="1">
          <mxGeometry y="180" width="120" height="60" as="geometry" />
        </mxCell>
        <mxCell id="vhjB4R_xnmIIH9IUFAty-18" style="edgeStyle=orthogonalEdgeStyle;rounded=0;orthogonalLoop=1;jettySize=auto;html=1;entryX=0.5;entryY=0;entryDx=0;entryDy=0;" parent="1" source="vhjB4R_xnmIIH9IUFAty-12" target="vhjB4R_xnmIIH9IUFAty-15" edge="1">
          <mxGeometry relative="1" as="geometry" />
        </mxCell>
        <mxCell id="vhjB4R_xnmIIH9IUFAty-12" value="Maintain" style="rounded=0;whiteSpace=wrap;html=1;" parent="1" vertex="1">
          <mxGeometry x="210" y="180" width="120" height="60" as="geometry" />
        </mxCell>
        <mxCell id="vhjB4R_xnmIIH9IUFAty-19" value="" style="edgeStyle=orthogonalEdgeStyle;rounded=0;orthogonalLoop=1;jettySize=auto;html=1;" parent="1" source="vhjB4R_xnmIIH9IUFAty-15" target="vhjB4R_xnmIIH9IUFAty-16" edge="1">
          <mxGeometry relative="1" as="geometry" />
        </mxCell>
        <mxCell id="vhjB4R_xnmIIH9IUFAty-15" value="Save" style="ellipse;whiteSpace=wrap;html=1;" parent="1" vertex="1">
          <mxGeometry x="100" y="350" width="120" height="80" as="geometry" />
        </mxCell>
        <mxCell id="vhjB4R_xnmIIH9IUFAty-34" value="" style="edgeStyle=orthogonalEdgeStyle;rounded=0;orthogonalLoop=1;jettySize=auto;html=1;" parent="1" source="vhjB4R_xnmIIH9IUFAty-16" target="vhjB4R_xnmIIH9IUFAty-33" edge="1">
          <mxGeometry relative="1" as="geometry" />
        </mxCell>
        <mxCell id="vhjB4R_xnmIIH9IUFAty-16" value="Submit" style="ellipse;whiteSpace=wrap;html=1;" parent="1" vertex="1">
          <mxGeometry x="100" y="510" width="120" height="80" as="geometry" />
        </mxCell>
        <mxCell id="vhjB4R_xnmIIH9IUFAty-23" value="Preview" style="rounded=0;whiteSpace=wrap;html=1;" parent="1" vertex="1">
          <mxGeometry x="-230" y="30" width="120" height="60" as="geometry" />
        </mxCell>
        <mxCell id="vhjB4R_xnmIIH9IUFAty-28" value="Delete" style="ellipse;whiteSpace=wrap;html=1;" parent="1" vertex="1">
          <mxGeometry x="470" y="20" width="120" height="80" as="geometry" />
        </mxCell>
        <mxCell id="vhjB4R_xnmIIH9IUFAty-33" value="Approval" style="whiteSpace=wrap;html=1;" parent="1" vertex="1">
          <mxGeometry x="670" y="520" width="120" height="60" as="geometry" />
        </mxCell>
        <mxCell id="vX34Y-m-v6llfReGypgx-1" value="&lt;h2 class=&quot;header-line&quot; style=&quot;box-sizing: border-box ; font-family: &amp;#34;microsoft jhenghei&amp;#34; , &amp;#34;helvetica neue&amp;#34; , &amp;#34;helvetica&amp;#34; , &amp;#34;arial&amp;#34; , sans-serif ; margin-top: 10px ; margin-bottom: 0px ; color: rgb(44 , 63 , 76) ; font-style: normal ; letter-spacing: normal ; text-indent: 0px ; text-transform: none ; word-spacing: 0px ; background-color: rgb(255 , 255 , 255)&quot;&gt;&lt;font style=&quot;font-size: 24px&quot;&gt;Multiple User Setting&lt;/font&gt;&lt;/h2&gt;" style="text;whiteSpace=wrap;html=1;" parent="1" vertex="1">
          <mxGeometry x="-260" y="-150" width="340" height="40" as="geometry" />
        </mxCell>
        <mxCell id="vX34Y-m-v6llfReGypgx-6" style="edgeStyle=orthogonalEdgeStyle;rounded=0;orthogonalLoop=1;jettySize=auto;html=1;entryX=0.5;entryY=0;entryDx=0;entryDy=0;fontSize=24;" parent="1" source="vX34Y-m-v6llfReGypgx-5" target="vhjB4R_xnmIIH9IUFAty-33" edge="1">
          <mxGeometry relative="1" as="geometry" />
        </mxCell>
        <mxCell id="vX34Y-m-v6llfReGypgx-5" value="inbox" style="rounded=0;whiteSpace=wrap;html=1;" parent="1" vertex="1">
          <mxGeometry x="670" y="-90" width="120" height="60" as="geometry" />
        </mxCell>
      </root>
    </mxGraphModel>
  </diagram>
</mxfile>
